<?xml version="1.0" standalone="no"?>
<!DOCTYPE svg PUBLIC "-//W3C//DTD SVG 20010904//EN"
 "http://www.w3.org/TR/2001/REC-SVG-20010904/DTD/svg10.dtd">
<svg version="1.0" xmlns="http://www.w3.org/2000/svg"
 width="300.000000pt" height="300.000000pt" viewBox="0 0 300.000000 300.000000"
 preserveAspectRatio="xMidYMid meet">
<metadata>
Created by potrace 1.14, written by Peter Selinger 2001-2017
</metadata>
<g transform="translate(0.000000,300.000000) scale(0.100000,-0.100000)"
fill="#000000" stroke="none">
<path d="M386 1984 c-227 -55 -391 -276 -379 -512 8 -174 119 -340 276 -417
78 -37 100 -44 192 -52 223 -19 446 137 510 358 66 230 -45 479 -258 584 -114
55 -222 68 -341 39z m332 -74 c31 -16 65 -36 75 -43 20 -17 22 -37 3 -37 -7 0
-19 -7 -26 -15 -24 -29 -39 -18 -35 25 3 34 0 43 -19 55 -15 10 -33 14 -50 9
-31 -8 -33 -15 -5 -32 17 -11 18 -16 8 -29 -10 -11 -24 -14 -52 -10 -54 7
-133 -29 -111 -50 15 -15 46 -10 63 10 17 22 77 9 90 -19 6 -14 11 -26 11 -28
0 -2 -35 -27 -78 -55 -73 -48 -135 -102 -133 -115 4 -23 -3 -25 -30 -10 -40
20 -79 6 -79 -29 0 -31 8 -37 34 -27 19 7 26 2 50 -35 27 -44 40 -48 73 -23
15 12 142 -57 201 -109 l43 -38 -18 -45 c-26 -70 -130 -214 -158 -222 -29 -7
-31 -5 -39 42 -14 94 -30 143 -57 180 -31 42 -37 71 -26 125 6 28 3 32 -46 61
-28 17 -65 36 -82 43 -21 8 -40 29 -63 74 -31 58 -33 65 -22 107 11 44 14 79
12 111 -2 14 -9 15 -53 7 -28 -5 -53 -7 -56 -4 -6 6 45 58 78 80 21 13 40 15
90 10 35 -3 66 -7 67 -9 2 -2 23 4 45 14 23 10 68 21 101 25 32 3 70 13 85 21
36 20 44 19 109 -15z m236 -293 c14 -45 19 -169 9 -207 -3 -12 -12 -17 -24
-15 -30 6 -36 12 -52 58 -8 23 -18 49 -21 58 -5 10 7 33 34 65 22 27 38 55 35
61 -16 41 -18 48 -7 38 7 -6 18 -32 26 -58z m-446 -103 c7 -2 10 -8 7 -14 -5
-9 -65 13 -65 24 0 4 31 -1 58 -10z"/>
<path d="M2010 1538 c0 -292 3 -316 46 -338 22 -12 130 -10 152 3 4 4 6 25 3
48 -6 41 -8 43 -41 43 -45 1 -46 6 -44 288 l1 226 -58 4 -59 3 0 -277z"/>
<path d="M1771 1735 c-51 -16 -59 -26 -55 -66 4 -29 -5 -35 -43 -30 -7 1 -13
-4 -14 -11 -6 -89 -6 -88 27 -88 l31 0 0 -118 c0 -150 7 -186 40 -212 29 -23
109 -27 162 -9 31 11 32 14 26 48 -9 49 -10 50 -54 44 -52 -7 -58 7 -60 139
l-2 107 53 3 53 3 3 46 3 45 -43 1 c-24 1 -49 2 -55 2 -9 1 -13 19 -13 56 0
30 -3 55 -7 54 -5 0 -28 -7 -52 -14z"/>
<path d="M1395 1643 c-132 -23 -134 -24 -114 -82 8 -24 16 -31 28 -26 9 4 48
9 86 12 78 6 91 -1 97 -52 l3 -30 -71 -6 c-122 -11 -174 -48 -181 -126 -6 -79
39 -133 117 -139 51 -3 86 9 121 42 l26 25 8 -28 c9 -36 15 -39 64 -35 28 3
39 8 34 16 -4 6 -8 85 -8 176 -1 182 -10 217 -65 240 -28 11 -111 19 -145 13z
m100 -285 c-7 -45 -39 -70 -84 -66 -26 2 -39 10 -48 28 -12 22 -10 27 13 48
19 16 38 22 75 22 l49 0 -5 -32z"/>
<path d="M2398 1645 c-2 -2 -19 -5 -38 -8 -85 -12 -93 -17 -86 -55 7 -48 14
-53 61 -42 56 13 129 12 143 -2 7 -7 12 -27 12 -45 l0 -33 -55 -1 c-63 -2 -59
-1 -106 -17 -58 -20 -92 -63 -92 -117 0 -114 134 -172 230 -99 39 30 39 30 47
-1 6 -22 12 -25 49 -25 l42 0 -2 175 c-2 194 -10 226 -68 254 -25 12 -128 24
-137 16z m92 -286 c0 -39 -35 -69 -81 -69 -43 0 -57 20 -50 69 2 17 90 42 119
33 6 -2 12 -17 12 -33z"/>
<path d="M2760 1637 c-51 -18 -80 -66 -75 -129 4 -61 36 -99 104 -125 63 -23
91 -42 91 -62 0 -42 -59 -53 -135 -26 -21 8 -40 13 -41 12 -1 -1 -9 -19 -17
-39 -12 -28 -13 -39 -4 -46 49 -39 205 -42 254 -6 48 35 70 102 51 155 -14 40
-57 75 -121 99 -123 46 -81 105 55 76 35 -8 38 -6 48 20 17 44 9 58 -40 71
-58 15 -126 15 -170 0z"/>
</g>
</svg>
