<?xml version="1.0" standalone="no"?>
<!DOCTYPE svg PUBLIC "-//W3C//DTD SVG 20010904//EN"
 "http://www.w3.org/TR/2001/REC-SVG-20010904/DTD/svg10.dtd">
<svg version="1.0" xmlns="http://www.w3.org/2000/svg"
 width="300.000000pt" height="300.000000pt" viewBox="0 0 300.000000 300.000000"
 preserveAspectRatio="xMidYMid meet">
<metadata>
Created by potrace 1.14, written by Peter Selinger 2001-2017
</metadata>
<g transform="translate(0.000000,300.000000) scale(0.100000,-0.100000)"
fill="#000000" stroke="none">
<path d="M420 1989 c-30 -5 -91 -27 -136 -49 -212 -104 -319 -343 -255 -572
51 -186 214 -329 407 -358 242 -37 486 126 549 365 64 249 -78 513 -320 593
-75 25 -173 33 -245 21z m303 -75 c44 -22 97 -63 97 -75 0 -5 -8 -9 -18 -9 -9
0 -23 -9 -30 -20 -20 -32 -42 -14 -42 34 0 46 -22 69 -59 59 -25 -6 -27 -19
-5 -31 13 -7 14 -13 5 -31 -13 -23 -32 -27 -62 -11 -14 8 -29 5 -65 -13 -40
-20 -44 -25 -30 -36 13 -11 20 -9 42 8 38 30 88 28 102 -4 7 -14 12 -31 12
-38 -1 -7 -33 -32 -71 -56 -99 -61 -129 -89 -129 -117 0 -27 -14 -30 -49 -10
-27 15 -71 3 -71 -18 0 -23 18 -38 37 -32 16 5 26 -3 47 -34 30 -45 26 -43 62
-30 23 9 37 6 88 -21 74 -39 166 -109 166 -126 0 -26 -49 -122 -93 -183 -26
-35 -48 -66 -49 -70 -2 -4 -17 -11 -34 -14 l-31 -7 -18 90 c-12 64 -27 105
-49 138 -25 40 -31 58 -31 107 l0 60 -78 39 c-73 37 -80 44 -109 101 -30 58
-30 63 -19 117 6 30 11 68 11 83 0 27 -1 28 -42 21 -24 -3 -51 -9 -60 -11 -28
-8 -21 9 20 47 66 63 79 67 155 56 56 -9 73 -8 101 5 18 9 59 19 92 23 32 4
75 15 94 25 36 19 47 17 113 -16z m231 -282 c16 -57 22 -195 10 -226 -8 -21
-51 -20 -62 2 -5 9 -17 40 -27 69 l-18 51 41 49 c29 36 38 53 31 64 -11 18
-12 49 0 49 4 0 16 -26 25 -58z m-446 -112 c12 0 22 -4 22 -9 0 -18 -32 -21
-61 -6 -34 18 -38 30 -6 21 12 -3 32 -6 45 -6z"/>
<path d="M2010 1541 c0 -164 4 -280 11 -299 14 -40 54 -56 124 -49 30 3 58 8
63 11 4 2 6 23 4 45 -4 38 -6 40 -40 43 l-37 3 -3 258 -2 257 -60 0 -60 0 0
-269z"/>
<path d="M1768 1734 c-47 -14 -48 -16 -48 -54 0 -38 -2 -40 -30 -40 -29 0 -30
-1 -30 -50 0 -49 1 -50 29 -50 l30 0 3 -151 3 -151 28 -24 c22 -19 40 -24 81
-24 29 0 68 5 85 11 30 11 32 15 27 42 -3 16 -6 36 -6 43 0 10 -11 12 -45 7
-42 -5 -45 -4 -55 21 -5 15 -10 72 -10 127 l0 99 55 0 55 0 0 50 0 50 -55 0
-55 0 0 55 c0 30 -3 55 -7 54 -5 0 -29 -7 -55 -15z"/>
<path d="M1400 1644 c-83 -13 -130 -27 -130 -38 0 -7 5 -27 11 -44 10 -28 14
-31 37 -24 15 4 56 7 92 7 60 0 66 -2 77 -27 21 -42 8 -58 -46 -58 -65 0 -143
-25 -171 -54 -35 -38 -39 -111 -8 -156 45 -67 148 -76 213 -19 l33 30 7 -31
c6 -28 9 -30 55 -30 l48 0 -9 41 c-5 23 -8 103 -7 178 3 147 -4 172 -55 205
-24 15 -106 26 -147 20z m90 -288 c0 -41 -28 -66 -75 -66 -37 0 -55 16 -55 46
0 32 36 54 87 54 42 0 43 -1 43 -34z"/>
<path d="M2400 1644 c-14 -2 -49 -9 -79 -15 l-53 -11 5 -36 c8 -47 17 -54 57
-42 48 14 133 13 148 -2 7 -7 12 -27 12 -45 0 -33 0 -33 -48 -33 -73 0 -146
-25 -176 -61 -36 -43 -36 -115 -1 -158 49 -58 128 -64 199 -16 20 14 38 25 40
25 2 0 7 -11 10 -25 6 -22 12 -25 49 -25 l42 0 -3 177 c-4 193 -11 222 -60
247 -30 15 -104 25 -142 20z m90 -284 c0 -43 -31 -70 -80 -70 -29 0 -42 5 -50
20 -24 45 12 78 88 79 40 1 42 0 42 -29z"/>
<path d="M2763 1639 c-56 -16 -95 -91 -79 -154 11 -42 58 -84 120 -108 67 -25
87 -47 70 -74 -15 -24 -82 -28 -130 -8 -20 8 -38 14 -39 13 -2 -2 -10 -20 -18
-41 l-16 -37 32 -17 c41 -21 154 -29 200 -14 57 19 87 62 87 125 0 71 -24 100
-117 142 -62 29 -73 37 -73 59 0 34 37 42 106 23 l54 -15 10 36 c14 51 15 49
-42 66 -57 17 -116 18 -165 4z"/>
</g>
</svg>
